<?xml version="1.0" standalone="no"?>
<!DOCTYPE svg PUBLIC "-//W3C//DTD SVG 20010904//EN"
 "http://www.w3.org/TR/2001/REC-SVG-20010904/DTD/svg10.dtd">
<svg version="1.0" xmlns="http://www.w3.org/2000/svg"
 width="512.000000pt" height="512.000000pt" viewBox="0 0 512.000000 512.000000"
 preserveAspectRatio="xMidYMid meet">

<g transform="translate(0.000000,512.000000) scale(0.100000,-0.100000)"
fill="#000000" stroke="none">
<path d="M4105 4113 c-16 -3 -176 -35 -355 -73 -179 -38 -597 -126 -930 -195
-333 -69 -738 -155 -900 -190 -162 -34 -465 -96 -673 -136 l-378 -73 3 -26 c2
-15 9 -24 18 -23 78 11 834 161 1129 224 206 44 560 118 785 165 458 94 661
137 1038 219 141 30 290 58 331 61 l75 7 26 -82 c14 -45 26 -89 26 -97 0 -15
14 -17 41 -6 15 6 14 16 -11 102 -35 117 -49 131 -134 129 -33 -1 -74 -4 -91
-6z"/>
<path d="M3615 3849 c-71 -15 -359 -76 -640 -134 -280 -59 -647 -136 -815
-171 -168 -36 -496 -103 -729 -149 -233 -47 -432 -87 -442 -90 -16 -5 -19 -16
-19 -65 0 -147 -72 -262 -185 -296 -33 -10 -64 -21 -69 -25 -4 -4 6 -69 22
-146 17 -76 61 -282 97 -458 37 -176 69 -323 71 -327 3 -4 30 -7 62 -6 31 1
84 -4 117 -11 53 -11 67 -20 116 -70 39 -40 60 -71 70 -105 7 -26 18 -51 24
-56 11 -9 99 8 695 130 1102 227 2074 434 2100 449 11 6 15 28 16 82 1 87 17
130 70 189 46 50 79 69 164 90 l65 17 -2 44 c-2 24 -47 235 -101 469 l-98 425
-74 -3 c-139 -7 -261 66 -317 189 -21 45 -32 59 -48 58 -11 -1 -78 -14 -150
-30z m156 -81 c29 -57 108 -131 175 -164 42 -21 76 -29 135 -32 71 -4 80 -7
84 -26 3 -11 45 -196 93 -411 l88 -390 -62 -20 c-146 -48 -234 -162 -234 -304
l0 -56 -593 -128 c-325 -70 -702 -150 -837 -178 -135 -27 -474 -97 -753 -155
-280 -57 -514 -104 -521 -104 -7 0 -21 19 -32 43 -22 50 -96 132 -139 154 -45
24 -124 43 -177 43 -27 0 -48 2 -48 5 0 7 -141 677 -159 756 l-18 75 50 18
c105 38 179 141 201 283 l12 78 479 96 c264 53 685 139 935 192 250 52 622
130 825 173 204 42 384 80 400 84 62 16 73 12 96 -32z"/>
<path d="M2465 3479 c-166 -22 -305 -90 -421 -204 -63 -62 -89 -97 -117 -155
-79 -166 -86 -339 -22 -523 35 -102 81 -173 170 -263 127 -128 262 -190 440
-201 271 -17 542 134 660 367 97 191 98 433 3 630 -78 162 -243 294 -418 334
-89 20 -211 26 -295 15z m257 -64 c221 -46 396 -215 453 -440 19 -76 19 -222
-1 -305 -53 -225 -229 -401 -460 -460 -324 -83 -642 92 -758 419 -28 78 -31
98 -31 206 0 100 4 131 23 188 100 288 440 461 774 392z"/>
<path d="M2440 3308 c-63 -14 -72 -24 -69 -75 3 -39 0 -46 -26 -62 -79 -47
-121 -133 -112 -224 10 -108 90 -157 326 -201 131 -24 174 -79 114 -146 -29
-32 -87 -52 -123 -43 -10 3 -31 22 -45 43 -15 21 -33 41 -40 44 -25 9 -145
-25 -156 -45 -34 -64 86 -191 193 -205 41 -6 48 -10 48 -29 0 -13 8 -33 19
-46 18 -22 21 -23 81 -11 83 15 92 24 84 81 -5 43 -4 47 24 63 82 48 132 131
132 218 0 71 -25 124 -83 177 -52 48 -111 68 -227 78 -122 10 -157 33 -125 82
33 50 103 57 147 13 16 -17 37 -34 47 -39 19 -11 107 3 127 20 22 18 16 63
-15 105 -49 68 -98 102 -172 118 -19 4 -29 14 -34 33 -8 35 -33 63 -54 62 -9
-1 -36 -6 -61 -11z m72 -80 c12 -41 16 -43 59 -49 64 -9 104 -33 139 -81 17
-22 30 -44 30 -48 0 -4 -16 -11 -36 -15 -32 -6 -41 -2 -68 24 -55 54 -140 54
-201 0 -42 -37 -52 -77 -30 -119 21 -41 60 -56 165 -65 119 -9 155 -21 202
-63 48 -44 68 -85 68 -144 0 -72 -43 -129 -148 -198 -21 -14 -22 -19 -14 -57
l10 -43 -33 -6 c-41 -7 -55 0 -55 29 0 36 -13 45 -67 52 -64 9 -121 41 -150
84 -13 19 -23 38 -23 42 0 4 19 12 43 17 37 8 44 7 57 -12 37 -52 62 -66 113
-66 138 0 227 129 151 220 -37 43 -67 56 -170 75 -117 21 -182 42 -221 72 -86
64 -54 206 59 264 39 20 40 21 36 67 -3 49 -4 49 64 61 3 0 12 -18 20 -41z"/>
<path d="M3659 3230 c-100 -30 -155 -162 -106 -256 62 -120 230 -149 319 -55
58 61 73 143 39 216 -22 48 -54 78 -100 94 -38 12 -113 13 -152 1z m133 -55
c83 -20 104 -158 34 -224 -26 -24 -89 -37 -130 -27 -39 10 -85 54 -97 94 -13
47 5 107 42 135 28 20 85 37 109 31 8 -2 27 -6 42 -9z"/>
<path d="M1316 2745 c-104 -37 -153 -151 -107 -250 36 -80 114 -122 208 -112
69 7 116 37 142 91 25 50 28 143 7 184 -45 85 -151 123 -250 87z m169 -75 c57
-53 54 -154 -6 -204 -39 -33 -118 -36 -163 -7 -89 59 -85 185 7 227 48 21 131
13 162 -16z"/>
<path d="M4334 3785 c-6 -14 94 -473 237 -1088 38 -165 69 -309 69 -322 0 -12
-6 -28 -14 -34 -21 -18 -280 -81 -756 -185 -1359 -296 -2883 -606 -2978 -606
-45 0 -54 3 -62 22 -5 13 -28 115 -50 228 -60 301 -184 895 -236 1125 -24 110
-47 234 -51 276 l-6 76 69 27 c38 15 105 35 149 45 79 17 96 30 77 58 -11 17
-182 -26 -268 -66 -74 -34 -80 -48 -70 -149 3 -37 11 -132 16 -212 5 -80 14
-186 19 -236 20 -172 124 -1389 128 -1499 6 -154 22 -168 201 -180 l102 -8 0
27 c0 14 -3 26 -7 26 -111 7 -217 21 -228 30 -10 8 -15 30 -15 61 0 48 1 49
25 43 24 -6 320 10 413 22 37 5 42 3 42 -14 0 -11 6 -24 13 -30 26 -22 2839
-81 2864 -60 7 6 13 20 13 32 0 44 32 116 72 161 59 66 105 87 213 94 l90 6 3
47 3 47 47 6 c26 4 59 10 75 15 l27 9 0 -247 c0 -136 -4 -253 -9 -261 -12 -18
-80 -30 -178 -31 -83 0 -83 0 -83 -26 l0 -26 118 4 c68 3 129 11 145 18 58 28
57 21 57 602 0 293 3 562 6 599 6 58 10 67 35 82 60 34 60 34 -29 414 -44 192
-118 516 -163 721 -72 327 -85 372 -101 372 -10 0 -21 -7 -24 -15z m-3751
-1465 c140 -668 178 -845 187 -854 16 -16 89 -11 213 13 128 25 137 25 137 7
0 -8 4 -17 9 -21 25 -15 2833 225 2854 245 5 4 11 32 13 61 10 101 65 188 148
231 21 11 73 25 115 32 l76 11 -2 67 -2 66 71 16 c39 9 72 15 73 14 4 -5 55
-471 55 -500 0 -60 -6 -61 -925 -148 -595 -56 -2065 -180 -2552 -215 -269 -19
-377 -20 -392 -1 -6 7 -28 210 -51 487 -21 261 -42 496 -45 524 -9 70 0 54 18
-35z m3697 -194 c0 -33 -1 -33 -53 -39 -141 -14 -264 -135 -283 -279 -6 -46
-7 -47 -48 -53 -91 -12 -1048 -98 -1621 -145 -335 -27 -671 -55 -745 -61 -75
-6 -144 -10 -154 -8 -11 2 191 47 449 100 463 95 468 95 519 81 75 -21 265
-20 346 1 85 23 192 74 254 122 43 33 65 40 185 66 75 15 273 58 441 94 168
36 391 84 495 106 105 22 192 43 194 45 13 12 21 0 21 -30z m-1438 -282 c-13
-9 -60 -29 -105 -46 -69 -26 -101 -31 -202 -35 -66 -3 -117 -2 -113 2 7 7 394
92 428 94 9 1 6 -5 -8 -15z m-1499 -311 c-7 -2 -19 -2 -25 0 -7 3 -2 5 12 5
14 0 19 -2 13 -5z m3007 -7 c0 -10 -21 -15 -78 -18 -94 -5 -163 -39 -223 -106
-37 -43 -79 -133 -79 -172 0 -16 -5 -19 -27 -15 -16 2 -266 7 -558 10 -470 5
-1064 18 -1825 42 -232 7 -240 8 -145 15 55 5 287 24 516 42 l415 34 56 -19
c120 -40 313 -42 431 -3 29 9 79 30 112 47 59 30 61 30 700 88 567 52 667 61
698 68 4 0 7 -5 7 -13z m-1545 -137 c-71 -23 -213 -34 -275 -21 -45 10 -45 10
-10 12 19 1 96 7 170 14 179 17 185 17 115 -5z"/>
<path d="M992 1089 c3 -24 3 -24 178 -31 359 -15 1846 -48 2418 -55 506 -5
595 -4 603 8 24 38 19 39 -288 39 -369 1 -1143 15 -1863 34 -300 9 -659 18
-798 22 l-254 7 4 -24z"/>
</g>
</svg>
